<?xml version="1.0" encoding="UTF-8" standalone="no"?>
<!-- Created with Inkscape (http://www.inkscape.org/) -->

<svg
   xmlns:dc="http://purl.org/dc/elements/1.1/"
   xmlns:cc="http://creativecommons.org/ns#"
   xmlns:rdf="http://www.w3.org/1999/02/22-rdf-syntax-ns#"
   xmlns:svg="http://www.w3.org/2000/svg"
   xmlns="http://www.w3.org/2000/svg"
   xmlns:sodipodi="http://sodipodi.sourceforge.net/DTD/sodipodi-0.dtd"
   xmlns:inkscape="http://www.inkscape.org/namespaces/inkscape"
   width="32"
   height="32"
   id="svg3920"
   version="1.1"
   inkscape:version="0.48.4 r9939"
   sodipodi:docname="icon64.svg">
  <defs
     id="defs3922" />
  <sodipodi:namedview
     id="base"
     pagecolor="#ffffff"
     bordercolor="#666666"
     borderopacity="1.0"
     inkscape:pageopacity="0.0"
     inkscape:pageshadow="2"
     inkscape:zoom="3.1192403"
     inkscape:cx="82.38342"
     inkscape:cy="-3.530718"
     inkscape:document-units="px"
     inkscape:current-layer="layer1"
     showgrid="false"
     inkscape:window-width="1304"
     inkscape:window-height="745"
     inkscape:window-x="-8"
     inkscape:window-y="-8"
     inkscape:window-maximized="1" />
  <metadata
     id="metadata3925">
    <rdf:RDF>
      <cc:Work
         rdf:about="">
        <dc:format>image/svg+xml</dc:format>
        <dc:type
           rdf:resource="http://purl.org/dc/dcmitype/StillImage" />
        <dc:title></dc:title>
      </cc:Work>
    </rdf:RDF>
  </metadata>
  <g
     inkscape:label="Layer 1"
     inkscape:groupmode="layer"
     id="layer1"
     transform="translate(0,-1020.3622)">
    <g
       id="g3868"
       transform="matrix(3.0812035,0,0,3.0812035,-578.52013,-1094.8646)">
      <path
         d="m 192.13738,695.99545 0,-5.0692 c 0,-0.28536 0.0743,-0.5033 0.22306,-0.65383 0.14871,-0.15051 0.34306,-0.22577 0.58305,-0.22577 0.24384,0 0.44152,0.0749 0.59306,0.22479 0.15154,0.14987 0.22731,0.36814 0.22731,0.65481 l 0,5.0692 c 0,0.28835 -0.0752,0.50774 -0.22549,0.65817 -0.15032,0.15042 -0.34862,0.22563 -0.59488,0.22563 -0.23797,0 -0.43182,-0.0757 -0.58153,-0.22703 -0.14972,-0.15136 -0.22458,-0.37028 -0.22458,-0.65677 z"
         style="font-size:198.02270508px;font-style:normal;font-variant:normal;font-weight:bold;font-stretch:normal;text-align:start;line-height:125%;letter-spacing:0px;word-spacing:0px;writing-mode:lr-tb;text-anchor:start;fill:#808080;fill-opacity:1;stroke:none;font-family:Arial Rounded MT Bold;-inkscape-font-specification:'Arial Rounded MT Bold, Bold'"
         id="path2994"
         inkscape:connector-curvature="0" />
      <path
         transform="matrix(0.00661481,-0.01606369,0.01606369,0.00661481,188.29877,692.13061)"
         d="m 218.44917,102.9276 c 57.36578,7.27224 97.00383,62.5765 89.54411,119.1349 -2.04692,15.51943 -7.44216,30.54419 -15.67047,43.857"
         sodipodi:t0="0.89431828"
         sodipodi:argument="-18.24295"
         sodipodi:radius="112.47939"
         sodipodi:revolution="3"
         sodipodi:expansion="1"
         sodipodi:cy="201.79704"
         sodipodi:cx="199.9111"
         id="path3008"
         style="fill:none;stroke:#808080;stroke-width:39.998909;stroke-linecap:round;stroke-linejoin:round;stroke-miterlimit:4;stroke-opacity:1;stroke-dasharray:none"
         sodipodi:type="spiral" />
      <path
         sodipodi:type="spiral"
         style="fill:none;stroke:#808080;stroke-width:27.75443459;stroke-linecap:round;stroke-linejoin:round;stroke-miterlimit:4;stroke-opacity:1;stroke-dasharray:none"
         id="path3778"
         sodipodi:cx="199.9111"
         sodipodi:cy="201.79704"
         sodipodi:expansion="1"
         sodipodi:revolution="3"
         sodipodi:radius="112.47939"
         sodipodi:argument="-18.24295"
         sodipodi:t0="0.89431828"
         d="m 218.44917,102.9276 c 57.36578,7.27224 97.00383,62.5765 89.54411,119.1349 -2.04692,15.51943 -7.44216,30.54419 -15.67047,43.857"
         transform="matrix(0.00953308,-0.02315054,0.02315054,0.00953308,186.2465,692.20752)" />
    </g>
  </g>
</svg>
